<?xml version="1.0" encoding="utf-8"?>
<!-- Generator: Adobe Illustrator 24.1.2, SVG Export Plug-In . SVG Version: 6.00 Build 0)  -->
<svg version="1.1" id="Warstwa_3" xmlns="http://www.w3.org/2000/svg" xmlns:xlink="http://www.w3.org/1999/xlink" x="0px" y="0px"
	 viewBox="0 0 430 430" style="enable-background:new 0 0 430 430;" xml:space="preserve">
<style type="text/css">
	.st0{fill:#17a2b8;}
	.st1{fill:#17a2b8;}
	.st2{fill:none;}
	.st3{fill-opacity:0;}
</style>
<g>
	<path class="st1" d="M209.57,382.14c-0.02,0-0.03,0-0.06,0c-0.01,0-0.01,0-0.02,0c0,0,0,0,0,0c-0.5-0.01-1-0.07-1.5-0.2
		c0,0-0.01,0-0.01,0c-0.15-0.04-0.3-0.08-0.44-0.13L74.61,337.05c-2.56-0.86-4.28-3.27-4.27-5.97c0-0.4,0.2-40.83-0.33-91.04
		c-0.1-9.3-0.18-18.43-0.24-27.13c-0.02-3.46,2.76-6.29,6.23-6.31c0.01,0,0.03,0,0.04,0c3.44,0,6.24,2.78,6.27,6.23
		c0.06,8.69,0.14,17.8,0.24,27.09c0.43,40.57,0.38,74.77,0.35,86.71l120.41,40.53c0-18,0.01-59.85,0.01-87.12l0.01-87.86
		L74.51,148.92c-2.79-0.63-4.86-3.11-4.86-6.09v-0.05c0-1.97,0.92-3.82,2.49-5c1.57-1.18,3.6-1.56,5.49-1.03
		c0.09,0.03,0.26,0.08,0.35,0.11l131.57,44.17l131.22-44.19c3.29-1.1,6.84,0.66,7.94,3.94c1.11,3.28-0.66,6.84-3.94,7.94
		l-128.9,43.4c0,3.93-0.01,10.21-0.02,17.92v69.53c0.02,29.5,0,69.98-0.01,87.56l119.96-40.52c-0.04-11.09-0.09-41.53,0.33-80.4
		c0.19-17.35,0.27-34.96,0.32-46.69c0.01-3.45,2.82-6.24,6.27-6.24c0.01,0,0.02,0,0.03,0c3.46,0.01,6.26,2.83,6.24,6.29
		c-0.05,11.75-0.13,29.38-0.32,46.77c-0.52,48.86-0.31,84.37-0.31,84.72c0.02,2.7-1.7,5.11-4.26,5.98l-132.5,44.75
		c-0.07,0.02-0.14,0.04-0.21,0.07c0,0-0.01,0-0.01,0c0,0-0.01,0-0.01,0c0,0,0,0,0,0C210.78,382.05,210.17,382.14,209.57,382.14z"/>
	<path class="st0" d="M165.92,249.39c-0.67,0-1.34-0.11-2-0.33L30.96,204.31c-1.92-0.65-3.41-2.18-4-4.12
		c-0.59-1.94-0.2-4.05,1.04-5.65l39.09-50.58l-50.76-39.05c-1.9-1.46-2.8-3.87-2.32-6.22c0.48-2.35,2.25-4.21,4.56-4.82
		l141.26-36.75c1.77-0.46,3.67-0.12,5.17,0.93l44.78,31.31l55.02-40.29c1.49-1.09,3.38-1.47,5.17-1.04L411.31,82.1
		c2.32,0.56,4.12,2.38,4.64,4.71c0.53,2.32-0.31,4.75-2.16,6.25l-61.53,49.98l39.54,36.78c1.62,1.5,2.32,3.75,1.86,5.91
		c-0.46,2.16-2.03,3.91-4.12,4.62l-132.51,44.76c-2.16,0.73-4.55,0.23-6.24-1.31l-40.43-37L170.85,247
		C169.64,248.54,167.81,249.39,165.92,249.39z M43.3,195.23l120.43,40.54l35.43-45.01L78.16,150.14L43.3,195.23z M221.68,190.17
		l34.84,31.88l119.04-40.21l-34.33-31.93L221.68,190.17z M95.56,142.76l113.99,38.27l113.8-38.32l-113.48-38.94L95.56,142.76z
		 M34.13,102.77l42.95,33.04l119.16-40.64L160.2,69.98L34.13,102.77z M223.2,95.08l118.27,40.58l54.59-44.34L269.88,60.9
		L223.2,95.08z"/>
</g>
</svg>
