<?xml version="1.0" encoding="utf-8"?>
<!-- Generator: Adobe Illustrator 23.0.5, SVG Export Plug-In . SVG Version: 6.00 Build 0)  -->
<svg version="1.1" id="Layer_1" xmlns="http://www.w3.org/2000/svg" xmlns:xlink="http://www.w3.org/1999/xlink" x="0px" y="0px"
	 viewBox="0 0 1080 1080" style="enable-background:new 0 0 1080 1080;" xml:space="preserve">
<style type="text/css">
	.st0{fill:#1B1464;}
	.st1{fill:#FFFFFF;}
	.st2{fill:#B2B2B2;}
	.st3{fill:#C1C1C1;}
	.st4{enable-background:new    ;}
</style>
<g>
	<circle class="st0" cx="540" cy="540" r="520"/>
	<g>
		<path class="st1" d="M513.5,511.5V279.2c0-15.8,13-28.6,28.8-27.3c13.6,1.1,24.3,12.5,24.3,26.4v234.1c0,13.9-10.7,25.3-24.3,26.4
			C526.5,540.1,513.5,527.3,513.5,511.5z"/>
		<path class="st1" d="M539.7,540.3c-10.5-10.5-10.5-27.4,0-37.8l167.2-167.1c10.5-10.5,27.4-10.5,37.8,0s10.5,27.4,0,37.8
			L577.6,540.3C567.1,550.7,550.2,550.7,539.7,540.3z"/>
		<path class="st1" d="M568.5,514.3h232.3c15.8,0,28.6,13,27.3,28.8c-1.1,13.6-12.5,24.3-26.4,24.3H567.6
			c-13.9,0-25.3-10.7-26.4-24.3C539.9,527.3,552.7,514.3,568.5,514.3z"/>
		<path class="st1" d="M539.7,540.3c10.5-10.5,27.4-10.5,37.8,0l167.1,167.2c10.5,10.5,10.5,27.4,0,37.8s-27.4,10.5-37.8,0
			L539.7,578.1C529.3,567.7,529.3,550.7,539.7,540.3z"/>
		<path class="st1" d="M566.5,569.1v232.3c0,15.8-13,28.6-28.8,27.3c-13.6-1.1-24.3-12.5-24.3-26.4V568.2
			c0-13.9,10.7-25.3,24.3-26.4C553.5,540.5,566.5,553.3,566.5,569.1z"/>
		<path class="st1" d="M539.7,540.3c10.5,10.5,10.5,27.4,0,37.8L372.6,745.3c-10.5,10.5-27.4,10.5-37.8,0s-10.5-27.4,0-37.8
			l167.1-167.1C512.3,529.8,529.3,529.8,539.7,540.3z"/>
		<path class="st2" d="M510.9,567.3H278.6c-15.8,0-28.6-13-27.3-28.8c1.1-13.6,12.5-24.3,26.4-24.3h234.1
			c13.9,0,25.3,10.7,26.4,24.3C539.6,554.3,526.8,567.3,510.9,567.3z"/>
		<path class="st1" d="M539.7,540.3c-10.5,10.5-27.4,10.5-37.8,0L334.7,373.1c-10.5-10.5-10.5-27.4,0-37.8
			c10.5-10.5,27.4-10.5,37.8,0l167.1,167.1C550.2,512.9,550.2,529.8,539.7,540.3z"/>
		<path class="st3" d="M611.1,540.3c0,39.4-32,71.4-71.4,71.4s-71.4-32-71.4-71.4s32-71.4,71.4-71.4S611.1,500.9,611.1,540.3z"/>
		<path class="st1" d="M490.4,149.5c0.3,72.4,23.8,127.8,23.8,127.8h53.5c0,0,23.8-56.2,23.8-129.3c0-28.9-24.3-52.2-53.7-50.4
			C510.8,99.1,490.2,122.4,490.4,149.5z"/>
		<path class="st1" d="M854.2,227c-19.7-19.7-51.7-19.7-71.5,0C731,278.7,708,335.3,708,335.3l37.8,37.8c0,0,56.5-22.9,108.3-74.6
			C873.9,278.8,873.9,246.8,854.2,227z"/>
		<path class="st1" d="M932.5,489.7c-72.4,0.3-127.8,23.8-127.8,23.8v53.5c0,0,56.2,23.8,129.3,23.8c28.9,0,52.2-24.3,50.5-53.7
			C982.8,510.1,959.5,489.6,932.5,489.7z"/>
		<path class="st1" d="M854.2,853.5c19.7-19.7,19.7-51.7,0-71.5c-51.7-51.7-108.3-74.6-108.3-74.6L708,745.3
			c0,0,22.9,56.5,74.6,108.3C802.4,873.3,834.4,873.3,854.2,853.5z"/>
		<path class="st1" d="M590.3,930.5c-0.3-72.4-23.8-127.8-23.8-127.8H513c0,0-23.8,56.2-23.8,129.3c0,28.9,24.3,52.2,53.7,50.5
			C569.9,980.9,590.4,957.6,590.3,930.5z"/>
		<path class="st1" d="M226.5,853.5c19.7,19.7,51.7,19.7,71.5,0c51.7-51.7,74.6-108.3,74.6-108.3l-37.8-37.8
			c0,0-56.5,22.9-108.3,74.6C206.7,801.8,206.7,833.8,226.5,853.5z"/>
		<path class="st1" d="M148.7,590.8c72.4-0.3,127.8-23.8,127.8-23.8v-53.5c0,0-56.2-23.8-129.3-23.8c-28.9,0-52.2,24.3-50.4,53.7
			C98.4,570.4,121.6,590.9,148.7,590.8z"/>
		<path class="st1" d="M226.5,227c-19.7,19.7-19.7,51.7,0,71.5c51.7,51.7,108.3,74.6,108.3,74.6l37.8-37.8c0,0-22.9-56.5-74.6-108.3
			C278.2,207.3,246.2,207.3,226.5,227z"/>
		<g>
			<path class="st2" d="M513.5,278.4v97.5c8.6-1.4,17.5-2.1,26.5-2.1s17.9,0.7,26.5,2.1v-98.4c0-13.9-10.7-25.3-24.3-26.4
				C526.5,249.8,513.5,262.6,513.5,278.4z"/>
			<path class="st2" d="M490.2,174.5c4.6,59.8,22.8,102.8,22.8,102.8h53.5c0,0,18.2-43,22.8-102.8c-16.2-2.2-32.7-3.3-49.5-3.3
				C522.9,171.2,506.4,172.3,490.2,174.5z"/>
			<path class="st2" d="M744.7,335.3c-10.5-10.5-27.4-10.5-37.8,0l-70.3,70.3c7.2,5.2,14,10.9,20.5,17.4
				c6.4,6.4,12.2,13.3,17.4,20.5l70.3-70.3C755.2,362.7,755.2,345.7,744.7,335.3z"/>
			<path class="st2" d="M763.5,246.5c-39,45.5-56.6,88.8-56.6,88.8l37.8,37.8c0,0,43.3-17.5,88.8-56.6c-9.9-13-20.8-25.5-32.7-37.4
				C789,267.3,776.5,256.4,763.5,246.5z"/>
			<path class="st2" d="M801.6,514.3h-97.5c1.4,8.6,2.2,17.5,2.2,26.5s-0.7,17.9-2.2,26.5h98.4c13.9,0,25.3-10.7,26.4-24.3
				C830.3,527.3,817.5,514.3,801.6,514.3z"/>
			<path class="st2" d="M906.3,490.8c-59.8,4.6-102.8,22.8-102.8,22.8v53.5c0,0,43,18.2,102.8,22.8c2.2-16.2,3.3-32.7,3.3-49.5
				C909.6,523.5,908.4,507,906.3,490.8z"/>
			<path class="st2" d="M744.7,745.3c10.5-10.5,10.5-27.4,0-37.8l-70.3-70.3c-5.2,7.2-10.9,14-17.4,20.5
				c-6.4,6.4-13.3,12.2-20.5,17.4l70.3,70.3C717.3,755.7,734.3,755.7,744.7,745.3z"/>
			<path class="st2" d="M833.5,764c-45.5-39-88.8-56.6-88.8-56.6l-37.8,37.8c0,0,17.5,43.3,56.6,88.8c13-9.9,25.5-20.8,37.4-32.7
				C812.7,789.5,823.6,777,833.5,764z"/>
			<path class="st2" d="M566.5,802.2v-97.5c-8.6,1.4-17.5,2.2-26.5,2.2s-17.9-0.7-26.5-2.2v98.4c0,13.9,10.7,25.3,24.3,26.4
				C553.5,830.8,566.5,818,566.5,802.2z"/>
			<path class="st2" d="M589.3,905.5c-4.6-59.8-22.8-102.8-22.8-102.8H513c0,0-18.2,43-22.8,102.8c16.2,2.2,32.7,3.3,49.5,3.3
				C556.5,908.8,573,907.7,589.3,905.5z"/>
			<path class="st2" d="M334.7,745.3c10.5,10.5,27.4,10.5,37.9,0l70.3-70.3c-7.2-5.2-14-10.9-20.5-17.4
				c-6.4-6.4-12.2-13.3-17.4-20.5l-70.3,70.3C324.3,717.9,324.3,734.8,334.7,745.3z"/>
			<path class="st2" d="M316,834c39-45.5,56.6-88.8,56.6-88.8l-37.9-37.8c0,0-43.3,17.5-88.8,56.6c9.9,13,20.8,25.5,32.7,37.4
				C290.5,813.3,303,824.1,316,834z"/>
			<path class="st2" d="M277.8,567.3h97.5c-1.4-8.6-2.1-17.5-2.1-26.5s0.7-17.9,2.1-26.5h-98.4c-13.9,0-25.3,10.7-26.4,24.3
				C249.2,554.3,262,567.3,277.8,567.3z"/>
			<path class="st2" d="M173.8,589.8c59.8-4.6,102.8-22.8,102.8-22.8v-53.5c0,0-43-18.2-102.8-22.8c-2.2,16.2-3.3,32.7-3.3,49.5
				C170.4,557.1,171.6,573.6,173.8,589.8z"/>
			<path class="st2" d="M334.7,335.3c-10.5,10.5-10.5,27.4,0,37.9l70.3,70.3c5.2-7.2,10.9-14,17.4-20.5c6.4-6.4,13.3-12.2,20.5-17.4
				l-70.3-70.3C362.1,324.8,345.2,324.8,334.7,335.3z"/>
			<path class="st2" d="M246,316.5c45.5,39,88.8,56.6,88.8,56.6l37.8-37.9c0,0-17.5-43.3-56.6-88.8c-13,9.9-25.5,20.8-37.4,32.7
				C266.8,291,255.9,303.5,246,316.5z"/>
		</g>
		<path class="st3" d="M539.7,861.4c-177.1,0-321.1-144.1-321.1-321.1s144.1-321.1,321.1-321.1s321.1,144.1,321.1,321.1
			S716.8,861.4,539.7,861.4z M539.7,326.2c-118,0-214.1,96-214.1,214.1s96,214.1,214.1,214.1s214.1-96,214.1-214.1
			S657.8,326.2,539.7,326.2z"/>
	</g>
	<rect x="52.4" y="395.6" class="st0" width="988" height="288.9"/>
	<g class="st4">
		<path class="st1" d="M359.4,470.5l-26.7,133.7h-31.1l-44.1-73.3l-14.7,73.3h-37l26.7-133.7h31.1l44.3,73.1l14.5-73.1H359.4z"/>
		<path class="st1" d="M455.9,578.2H399l-15.5,26h-39.9l85.7-133.7h37.2l32.3,133.7h-37.6L455.9,578.2z M450.1,550.3l-9-43.4
			l-25.6,43.4H450.1z"/>
		<path class="st1" d="M639.9,545.8c3.1,4.5,4.7,9.8,4.7,15.9c0,13.9-5.7,24.4-17,31.6c-11.3,7.2-26.1,10.8-44.3,10.8h-73.5
			l26.7-133.7h67.6c15,0,26.5,2.7,34.5,8.1c8,5.4,11.9,13.1,11.9,23.2c0,7.8-2.1,14.5-6.3,20.1c-4.2,5.7-10.1,10.1-17.6,13.3
			C632.3,537.8,636.8,541.3,639.9,545.8z M601.2,572.9c3.8-2.7,5.7-6.6,5.7-11.8c0-3.8-1.4-6.7-4.2-8.5c-2.8-1.8-6.6-2.8-11.5-2.8
			h-33.4l-5.3,27.1h32.8C592.1,576.9,597.4,575.5,601.2,572.9z M568.4,497.8l-5.2,25.8h27.1c6.7,0,11.9-1.3,15.4-3.9
			c3.5-2.6,5.3-6.4,5.3-11.4c0-7-5.3-10.5-15.9-10.5H568.4z"/>
		<path class="st1" d="M683.3,470.5h37.8l-26.7,133.7h-37.8L683.3,470.5z"/>
		<path class="st1" d="M810.5,532l44.9,72.2h-42.2l-30.7-48.1l-17.4,15.7l-6.5,32.5h-37.2l26.7-133.7h37.2l-10.9,54.6l60.3-54.6
			h44.5L810.5,532z"/>
	</g>
</g>
</svg>
