<svg id="Layer_1" data-name="Layer 1" xmlns="http://www.w3.org/2000/svg" xmlns:xlink="http://www.w3.org/1999/xlink" viewBox="0 0 180.96 100.18"><defs><style>.cls-1{fill:url(#linear-gradient);}.cls-2{fill:url(#linear-gradient-2);}.cls-3{fill:url(#linear-gradient-3);}.cls-4{fill:url(#linear-gradient-4);}.cls-5{fill:url(#linear-gradient-5);}</style><linearGradient id="linear-gradient" x1="96.97" y1="9.46" x2="140.76" y2="-34.33" gradientTransform="translate(0.98 -41.63) rotate(36.85)" gradientUnits="userSpaceOnUse"><stop offset="0" stop-color="#951b81"/><stop offset="1" stop-color="#29235c"/></linearGradient><linearGradient id="linear-gradient-2" x1="26.95" y1="118.7" x2="70.73" y2="74.92" gradientTransform="translate(5.8 -4.44) rotate(-45.24)" xlink:href="#linear-gradient"/><linearGradient id="linear-gradient-3" x1="30.77" y1="122.52" x2="74.55" y2="78.74" gradientTransform="translate(5.8 -4.44) rotate(-45.24)" xlink:href="#linear-gradient"/><linearGradient id="linear-gradient-4" x1="34.59" y1="126.35" x2="78.37" y2="82.56" gradientTransform="translate(5.8 -4.44) rotate(-45.24)" xlink:href="#linear-gradient"/><linearGradient id="linear-gradient-5" x1="110.19" y1="2.12" x2="138.47" y2="-26.16" xlink:href="#linear-gradient"/></defs><title>Untitled-3</title><path d="M54.51,100.14l-12-13.92a34.06,34.06,0,0,1-9.14,1.22,31.43,31.43,0,0,1-17-4.73,33.23,33.23,0,0,1-12-13.1A40.33,40.33,0,0,1,0,50.65,40.32,40.32,0,0,1,4.42,31.7a32.76,32.76,0,0,1,12-13,31.65,31.65,0,0,1,17-4.68,31.5,31.5,0,0,1,16.9,4.68A32.43,32.43,0,0,1,62.17,31.7a40.67,40.67,0,0,1,4.34,19,40.74,40.74,0,0,1-4.1,18.4,33.2,33.2,0,0,1-11.14,13l16.66,18.09ZM14,64.37a21,21,0,0,0,7.85,9,21.34,21.34,0,0,0,11.53,3.15,20.92,20.92,0,0,0,11.38-3.15,21.1,21.1,0,0,0,7.8-9,31.45,31.45,0,0,0,2.81-13.72,31.43,31.43,0,0,0-2.81-13.71,21.1,21.1,0,0,0-7.8-9,20.92,20.92,0,0,0-11.38-3.15,21.34,21.34,0,0,0-11.53,3.15,21,21,0,0,0-7.85,9,31.43,31.43,0,0,0-2.81,13.71A31.45,31.45,0,0,0,14,64.37Z" transform="translate(-0.04 0.04)"/><path d="M91.91,21.75V44.57H87.15v-5a7.39,7.39,0,0,1-3,3.92,9.11,9.11,0,0,1-5,1.38,8.3,8.3,0,0,1-6.37-2.56Q70.32,39.76,70.33,35V21.75h4.73V34.51a6.72,6.72,0,0,0,1.57,4.78A5.61,5.61,0,0,0,80.94,41a5.89,5.89,0,0,0,4.51-1.82,7.53,7.53,0,0,0,1.7-5.3V21.75Z" transform="translate(-0.04 0.04)"/><path d="M153.83,23.8a10.11,10.11,0,0,1,3.6,6.36h-5a5.36,5.36,0,0,0-2-3.38,6.38,6.38,0,0,0-4-1.22,6,6,0,0,0-4.56,1.93A7.9,7.9,0,0,0,140,33.14a8,8,0,0,0,1.82,5.68,6,6,0,0,0,4.56,1.94,6.27,6.27,0,0,0,4-1.24,5.43,5.43,0,0,0,2-3.4h5a10.18,10.18,0,0,1-3.6,6.38,11.2,11.2,0,0,1-7.33,2.36,11.9,11.9,0,0,1-5.86-1.41,10,10,0,0,1-4-4.06,12.77,12.77,0,0,1-1.45-6.25,12.72,12.72,0,0,1,1.45-6.21,10,10,0,0,1,4-4.06,11.9,11.9,0,0,1,5.86-1.41A11.3,11.3,0,0,1,153.83,23.8Z" transform="translate(-0.04 0.04)"/><path d="M174.91,44.57l-8.2-10.14V44.57H162V13.92h4.72V31.48l8.12-9.73h5.67L170.56,33.1l10.19,11.47Z" transform="translate(-0.04 0.04)"/><path d="M84.81,63.52a8.72,8.72,0,0,1,3,5.49H83.3a4.87,4.87,0,0,0-1.6-3,5.11,5.11,0,0,0-3.46-1.13,4.09,4.09,0,0,0-2.75.84,2.91,2.91,0,0,0-1,2.3,2.27,2.27,0,0,0,.7,1.74,5,5,0,0,0,1.76,1c.71.25,1.71.52,3,.83a28.48,28.48,0,0,1,4.17,1.2,6.77,6.77,0,0,1,2.73,2A5.5,5.5,0,0,1,88,78.45a5.72,5.72,0,0,1-2.18,4.64A8.93,8.93,0,0,1,80,84.87a11.09,11.09,0,0,1-6.89-2,8.14,8.14,0,0,1-3.17-5.55h4.6a4.36,4.36,0,0,0,1.65,3A6,6,0,0,0,80,81.51a3.79,3.79,0,0,0,2.68-.89,2.93,2.93,0,0,0,1-2.25,2.5,2.5,0,0,0-.75-1.91A5.25,5.25,0,0,0,81,75.36a25.61,25.61,0,0,0-3.07-.8,35.83,35.83,0,0,1-4-1.16,6.29,6.29,0,0,1-2.65-1.89A5.28,5.28,0,0,1,70.17,68a5.81,5.81,0,0,1,2.17-4.7,9.19,9.19,0,0,1,6-1.8A9.62,9.62,0,0,1,84.81,63.52Z" transform="translate(-0.04 0.04)"/><path d="M104.21,80.48v4.1h-2.9a7.85,7.85,0,0,1-5.53-1.76C94.53,81.65,93.9,79.69,93.9,77V65.78H90.63v-4H93.9V56.08h4.76v5.68h5.51v4H98.66V77a3.8,3.8,0,0,0,.73,2.69,3.46,3.46,0,0,0,2.54.75Z" transform="translate(-0.04 0.04)"/><path d="M123.1,63a8.3,8.3,0,0,1,3.11,4.06v-5.3h4.72V84.58h-4.72v-5.3a8.3,8.3,0,0,1-3.11,4.06,9,9,0,0,1-5.3,1.53,10.1,10.1,0,0,1-5.32-1.41,9.6,9.6,0,0,1-3.67-4.06,15.26,15.26,0,0,1,0-12.46,9.6,9.6,0,0,1,3.67-4.06,10.1,10.1,0,0,1,5.32-1.41A9,9,0,0,1,123.1,63Zm-8.89,4.62a7.79,7.79,0,0,0-1.88,5.53,7.79,7.79,0,0,0,1.88,5.53,6.59,6.59,0,0,0,5,2,6.79,6.79,0,0,0,3.56-.94,6.53,6.53,0,0,0,2.48-2.62,9,9,0,0,0,0-7.94,6.55,6.55,0,0,0-2.48-2.65,6.88,6.88,0,0,0-3.56-.93A6.59,6.59,0,0,0,114.21,67.62Z" transform="translate(-0.04 0.04)"/><path d="M154.08,63.81a10.11,10.11,0,0,1,3.6,6.36h-5a5.4,5.4,0,0,0-2-3.38,6.39,6.39,0,0,0-4-1.22,6,6,0,0,0-4.55,1.93,7.88,7.88,0,0,0-1.82,5.65,8,8,0,0,0,1.82,5.67,6,6,0,0,0,4.55,2,6.28,6.28,0,0,0,4-1.24,5.48,5.48,0,0,0,2-3.4h5a10.18,10.18,0,0,1-3.6,6.38,11.25,11.25,0,0,1-7.33,2.36,11.9,11.9,0,0,1-5.86-1.41,10,10,0,0,1-4-4.06,14.11,14.11,0,0,1,0-12.46,10,10,0,0,1,4-4.06,11.9,11.9,0,0,1,5.86-1.41A11.3,11.3,0,0,1,154.08,63.81Z" transform="translate(-0.04 0.04)"/><path d="M175.16,84.58,167,74.43V84.58h-4.72V53.93H167V71.49l8.12-9.73h5.67l-9.94,11.35L181,84.58Z" transform="translate(-0.04 0.04)"/><path class="cls-1" d="M114.27,14.2a3.93,3.93,0,0,0-2.81,1.18,4,4,0,0,0,0,5.62,3.9,3.9,0,0,0,2.81,1.15A3.94,3.94,0,0,0,117.11,21h0a4,4,0,0,0,0-5.63A4,4,0,0,0,114.27,14.2Zm1.76,4a1.73,1.73,0,0,1-.51,1.23h0a1.73,1.73,0,0,1-2.46,0,1.7,1.7,0,0,1-.51-1.23,1.72,1.72,0,0,1,1.73-1.74A1.74,1.74,0,0,1,116,18.17Z" transform="translate(-0.04 0.04)"/><path class="cls-2" d="M109.82,52.88a1.11,1.11,0,0,1-1.91-.78l0-9.14a1.12,1.12,0,1,1,2.24,0l0,9.14A1.12,1.12,0,0,1,109.82,52.88Z" transform="translate(-0.04 0.04)"/><path class="cls-3" d="M115.24,56.22a1.12,1.12,0,0,1-1.91-.78l0-9.54a1.12,1.12,0,1,1,2.23,0l0,9.53A1.07,1.07,0,0,1,115.24,56.22Z" transform="translate(-0.04 0.04)"/><path class="cls-4" d="M120.63,52.84a1.12,1.12,0,0,1-1.91-.78l0-9.15a1.12,1.12,0,0,1,2.24,0l0,9.15A1.12,1.12,0,0,1,120.63,52.84Z" transform="translate(-0.04 0.04)"/><path class="cls-5" d="M114.21,0a1.07,1.07,0,0,0-.9.47,40.36,40.36,0,0,0-3.73,6.8A46,46,0,0,0,107,14.57a37.68,37.68,0,0,0-1.13,8.85l-4.78,7.15a1.19,1.19,0,0,0-.19.63L101,42a1.13,1.13,0,0,0,1.92.79,1.09,1.09,0,0,0,.13-.17l4.89-7.31c.38,1.18.83,2.35,1.32,3.54a1.14,1.14,0,0,0,1,.68h3v2.77a1.12,1.12,0,0,0,1.91.79,1.11,1.11,0,0,0,.33-.79V39.51l3,0a1.11,1.11,0,0,0,.79-.33,1.13,1.13,0,0,0,.24-.36c.49-1.18.92-2.37,1.29-3.54l5,7.27A1.12,1.12,0,0,0,127,43a1,1,0,0,0,.46-.28,1.09,1.09,0,0,0,.32-.79l-.06-10.8a1.17,1.17,0,0,0-.19-.63l-4.84-7.11a37.21,37.21,0,0,0-1.21-8.84,44.82,44.82,0,0,0-2.6-7.32A40.66,40.66,0,0,0,115.12.42,1.12,1.12,0,0,0,114.21,0Zm-11,38.37,0-6.8,2.93-4.38a38.08,38.08,0,0,0,1,5.36Zm22.31-6.89,0,6.79-3.94-5.78a38.24,38.24,0,0,0,.93-5.37ZM116.89,8.16a38.75,38.75,0,0,1,3.58,15.39,34.94,34.94,0,0,1-1.13,8.76.83.83,0,0,0,0,.15,44,44,0,0,1-1.57,4.8h-2.24l0-4.52a1.12,1.12,0,0,0-2.24,0l0,4.52H111a42.14,42.14,0,0,1-1.61-4.79s0-.1,0-.15a34.52,34.52,0,0,1-1.21-8.75A38.72,38.72,0,0,1,111.6,8.19a44.38,44.38,0,0,1,2.62-5.06A44.78,44.78,0,0,1,116.89,8.16Z" transform="translate(-0.04 0.04)"/></svg>